:SAMPLES-PER-SECOND 30
:FULLY-SPECIFIED
:DEGREES
272
root  5.26844 40.4778 1.9795 -5.38341 88.9964 -7.85829
RightUpLeg  -1.64706 -9.9515 -3.09375
RightLeg  9.80028 -16.8688 3.79244
RightFoot  -8.83237 -0.0148687 -2.0376
RightToes  0.00048216 0.542163 -0.142577
Spine  2.0669 0.349982 8.68192
Spine1  9.58595 2.08481 -5.25746
HEad  17.5681 31.0114 -6.79366
LeftShoulder1  7.2422 -10.9645 -43.5431
LeftArm  -15.3071 26.552 -22.8212
LeftForeArm  26.054 -32.5163 -5.68945
LeftHand  -0.25398 0.0180481 5.50724
RightShoulder  5.07392 8.83294 35.1647
RightArm  2.22115 -25.4244 36.6308
RightForeArm  -1.84896 23.307 5.09712
RightHand  -0.0916182 -4.58497 -9.46295
LeftUpLeg  2.73003 7.1271 6.06
LeftLeg  8.90219 2.85207 -0.532995
LeftFoot  -10.5994 0.106184 -6.67109
LeftToes  1.06244e-005 4.65856e-005 -8.18505e-006
273
root  4.94335 40.5894 1.52906 -15.4024 88.8257 -18.3248
RightUpLeg  -2.60053 -10.6486 -3.27008
RightLeg  9.35499 -16.1611 3.60116
RightFoot  -7.53528 0.0154648 -2.00591
RightToes  0.00048216 0.542163 -0.142577
Spine  2.02821 0.507417 7.29322
Spine1  9.05825 1.78334 -4.34323
HEad  14.4658 25.0125 -7.08224
LeftShoulder1  7.30982 -11.013 -43.8175
LeftArm  -14.0866 26.2377 -23.2642
LeftForeArm  27.3673 -34.6383 -6.14835
LeftHand  -0.25398 0.0180481 5.50724
RightShoulder  5.16367 8.93398 35.5447
RightArm  2.99465 -25.1554 35.1397
RightForeArm  -0.9753 23.6396 5.10514
RightHand  -0.0879625 -4.60393 -9.09556
LeftUpLeg  3.91499 5.13602 5.44935
LeftLeg  4.51617 6.03757 -1.61678
LeftFoot  -9.59497 0.124414 -4.54728
LeftToes  1.06244e-005 4.65856e-005 -8.18505e-006
274
root  4.59772 40.699 1.13594 15.3708 88.4676 11.886
RightUpLeg  -4.36768 -12.2428 -3.95501
RightLeg  10.0817 -14.1411 2.63251
RightFoot  -6.44377 0.0239927 -1.58733
RightToes  0.00048216 0.542163 -0.142577
Spine  2.08827 0.770672 4.05355
Spine1  8.4921 1.43001 -2.33572
HEad  11.675 19.0611 -6.75899
LeftShoulder1  7.35192 -11.0592 -43.9364
LeftArm  -13.2632 25.93 -24.1045
LeftForeArm  28.036 -35.934 -6.44974
LeftHand  -0.25398 0.0180481 5.50724
RightShoulder  5.24466 8.99341 35.9864
RightArm  2.43176 -24.0487 34.1892
RightForeArm  0.232898 22.8887 4.96476
RightHand  -0.0972602 -4.48152 -9.14571
LeftUpLeg  3.70544 4.54657 3.97397
LeftLeg  2.27753 7.46384 -2.34134
LeftFoot  -7.79676 0.129465 -2.64021
LeftToes  1.06244e-005 4.65856e-005 -8.18505e-006
275
root  4.24932 40.7588 0.748652 32.2547 87.9246 28.2344
RightUpLeg  -6.25343 -13.6056 -4.59183
RightLeg  11.1303 -12.4729 1.74084
RightFoot  -5.54452 0.00893318 -0.916316
RightToes  0.00048216 0.542163 -0.142577
Spine  2.51573 0.804252 1.25119
Spine1  7.39099 1.0434 -0.755382
HEad  9.5506 13.9069 -5.44924
LeftShoulder1  7.35752 -11.2215 -43.4632
LeftArm  -12.8463 26.2329 -25.2349
LeftForeArm  28.1001 -36.5902 -6.62322
LeftHand  -0.25398 0.0180481 5.50724
RightShoulder  5.22291 8.96465 35.9097
RightArm  -0.3435 -23.131 34.7378
RightForeArm  1.42861 21.965 4.87108
RightHand  -0.0982548 -4.50652 -9.58205
LeftUpLeg  2.91961 4.40747 2.87072
LeftLeg  1.46593 7.87725 -3.13707
LeftFoot  -6.30639 0.118626 -1.81892
LeftToes  1.06244e-005 4.65856e-005 -8.18505e-006
276
root  3.92313 40.7783 0.308623 26.6105 87.6707 22.313
RightUpLeg  -7.36957 -14.0488 -4.87782
RightLeg  11.3961 -11.9884 1.53219
RightFoot  -4.72549 -0.0100415 -0.380181
RightToes  0.00048216 0.542163 -0.142577
Spine  3.33257 0.615666 0.663483
Spine1  6.11854 0.827928 -0.731553
HEad  7.71684 9.8935 -3.69423
LeftShoulder1  7.43456 -11.5482 -42.9359
LeftArm  -12.1806 26.6868 -25.9988
LeftForeArm  28.0643 -36.9054 -6.71141
LeftHand  -0.25398 0.0180481 5.50724
RightShoulder  5.14687 8.9241 35.4452
RightArm  -3.37288 -22.9138 36.0377
RightForeArm  0.806554 22.362 4.90436
RightHand  -0.112122 -4.43159 -10.5666
LeftUpLeg  2.0888 4.61699 2.54102
LeftLeg  1.5671 8.02192 -3.7475
LeftFoot  -5.90729 0.0937548 -1.21651
LeftToes  1.06244e-005 4.65856e-005 -8.18505e-006
277
root  3.64232 40.7808 -0.158065 10.1858 87.1778 5.98825
RightUpLeg  -7.79625 -13.8222 -4.84747
RightLeg  11.1818 -11.0761 1.55059
RightFoot  -4.04558 -0.0541742 0.408792
RightToes  0.00048216 0.542163 -0.142577
Spine  4.11949 0.563102 1.53504
Spine1  5.52305 0.952782 -1.53165
HEad  5.71027 7.01314 -2.21354
LeftShoulder1  7.64116 -11.8936 -43.1521
LeftArm  -10.9556 26.399 -26.0057
LeftForeArm  28.1788 -36.7479 -6.66155
LeftHand  -0.25398 0.0180481 5.50724
RightShoulder  5.14334 8.99029 35.2019
RightArm  -4.38757 -22.861 36.5438
RightForeArm  -1.69777 24.2574 5.26305
RightHand  -0.17912 -3.86369 -12.0289
LeftUpLeg  1.35931 4.90263 2.50475
LeftLeg  2.46754 8.63514 -3.89893
LeftFoot  -6.24894 0.0508044 -0.295169
LeftToes  1.06244e-005 4.65856e-005 -8.18505e-006
